<?xml version="1.0" encoding="UTF-8"?>
<svg xmlns="http://www.w3.org/2000/svg" id="Layer_1" data-name="Layer 1" viewBox="0 0 24 24">
  <path d="M17.004,12.5v7.615c0,.633-.219,1.403-.573,2.008-.229,.391-.367,.868-.412,1.418-.022,.276-.268,.481-.539,.458-.275-.022-.48-.264-.458-.539,.057-.7,.24-1.32,.545-1.841,.301-.516,.436-1.127,.436-1.503v-7.615c0-.276-.224-.5-.5-.5s-.5,.224-.5,.5v3c0,.276-.224,.5-.5,.5s-.5-.224-.5-.5v-4c0-.276-.224-.5-.5-.5s-.5,.224-.5,.5v4c0,.276-.224,.5-.5,.5s-.5-.224-.5-.5v-5c0-.276-.224-.5-.5-.5s-.5,.224-.5,.5v5c0,.276-.224,.5-.5,.5s-.5-.224-.5-.5v-4c0-.276-.224-.5-.5-.5s-.5,.224-.5,.5v7.489c.014,.432-.558,.671-.854,.354l-1.152-1.152c-.209-.212-.582-.28-.821,0-.213,.201-.236,.592-.026,.796l2.794,2.72c.471,.458,.802,1.038,.958,1.676,.065,.269-.099,.539-.367,.605-.261,.065-.54-.096-.605-.367-.111-.456-.348-.87-.684-1.197l-2.799-2.725c-.602-.582-.582-1.639,.021-2.215,.517-.727,1.933-.469,2.235,.001l.298,.298v-6.282c0-.827,.673-1.5,1.5-1.5,.197,0,.385,.04,.558,.11,.173-.638,.751-1.11,1.442-1.11s1.269,.473,1.442,1.11c.173-.07,.36-.11,.558-.11,.691,0,1.269,.473,1.442,1.11,.173-.07,.36-.11,.558-.11,.827,0,1.5,.673,1.5,1.5Zm-11.452,.786c.424,.015,.67-.548,.359-.848l-3.266-3.376c-.261-.27-.589-.802-.731-1.383-.156-.609-.505-1.334-1.082-1.882-.477-.439-1.157,.322-.665,.746,.411,.388,.655,.922,.775,1.374,.167,.681,.544,1.387,.984,1.841l3.266,3.375c.098,.102,.229,.152,.359,.152ZM4.524,2.492c.557,.346,1.196,.528,1.851,.528h.006l4.085-.008c.291,.003,.542,.278,.538,.588,.027,.369-.297,.574-.588,.573l-1.816-.019c-.425,.021-.682,.534-.363,.85l2.464,2.522c.447,.47,1.175-.242,.715-.699l-1.622-1.66,.609,.006c.55,.125,1.736-.681,1.6-1.561,.01-.857-.689-1.589-1.533-1.6l-4.093,.008c-.468,.031-.892-.12-1.279-.349L3.575,.146c-.452-.466-1.172,.255-.707,.707,0,0,1.625,1.618,1.657,1.639ZM20.234,.852c.464-.454-.261-1.171-.71-.704l-1.119,1.132c-.425,.35-.864,.582-1.305,.689-.68,.167-1.385,.543-1.838,.981l-2.199,2.09c-.477,.439,.226,1.179,.688,.725l2.203-2.093c.271-.262,.804-.59,1.384-.731,.587-.144,1.16-.443,1.739-.923l1.156-1.167Zm3.624,4.056c-.195-.195-.512-.195-.707,0-.055,.061-.599,.583-.625,.644-.348,.558-.53,1.2-.529,1.857l.007,4.086c.006,.295-.307,.544-.587,.538-.455-.014-.545-.283-.573-.588l.019-1.816c.019-.43-.545-.673-.846-.366l-1.397,1.339c-.475,.442,.23,1.177,.692,.722l.539-.516-.007,.626c-.012,.862,.651,1.615,1.562,1.6,.833,.029,1.604-.696,1.599-1.533l-.007-4.093c0-.451,.119-.892,.349-1.279l.512-.512c.195-.195,.195-.512,0-.707Z"/>
</svg>
